<svg id="svg" version="1.1" width="400" height="493" viewBox="0 0 400 493" xmlns="http://www.w3.org/2000/svg" xmlns:xlink="http://www.w3.org/1999/xlink" ><g id="svgg"><path id="path0" d="M256.600 196.608 C 255.720 197.120,254.820 197.688,254.600 197.870 C 254.380 198.051,253.505 198.560,252.656 199.000 C 251.807 199.440,251.023 200.025,250.913 200.300 C 250.804 200.575,250.502 200.800,250.241 200.800 C 248.565 200.800,236.750 211.987,231.836 218.226 C 227.535 223.688,228.032 223.017,226.394 225.584 C 224.552 228.470,224.201 229.072,223.117 231.200 C 222.613 232.190,222.081 233.091,221.936 233.201 C 221.791 233.312,221.354 234.212,220.964 235.201 C 220.574 236.191,220.136 237.090,219.991 237.200 C 219.846 237.310,219.397 238.300,218.994 239.400 C 218.592 240.500,218.137 241.580,217.984 241.800 C 217.831 242.020,217.396 243.190,217.018 244.400 C 216.639 245.610,216.093 247.140,215.805 247.800 C 215.516 248.460,215.062 250.080,214.796 251.400 C 214.531 252.720,214.161 253.988,213.976 254.218 C 213.790 254.448,213.336 256.878,212.968 259.618 C 212.599 262.358,212.095 265.032,211.849 265.561 C 211.228 266.890,211.232 286.323,211.854 287.639 C 212.103 288.168,212.593 290.826,212.943 293.546 C 213.292 296.266,213.733 298.696,213.922 298.946 C 214.111 299.196,214.595 300.885,214.998 302.700 C 215.401 304.515,215.881 306.000,216.065 306.000 C 216.249 306.000,216.400 306.249,216.400 306.554 C 216.400 307.312,217.698 311.352,218.021 311.600 C 218.165 311.710,218.593 312.745,218.973 313.900 C 219.353 315.055,219.794 316.000,219.953 316.000 C 220.112 316.000,220.566 316.900,220.961 318.000 C 221.357 319.100,221.806 320.000,221.960 320.000 C 222.114 320.000,222.474 320.650,222.761 321.444 C 223.048 322.238,223.670 323.469,224.142 324.181 C 224.614 324.892,225.450 326.243,226.000 327.183 C 226.550 328.123,227.301 329.218,227.670 329.616 C 228.038 330.014,228.533 330.701,228.769 331.143 C 230.298 333.999,240.303 344.779,244.785 348.400 C 245.466 348.950,246.343 349.680,246.734 350.022 C 247.344 350.556,250.902 353.133,252.800 354.414 C 255.438 356.195,262.155 360.038,264.000 360.822 C 264.550 361.056,265.900 361.665,267.000 362.176 C 268.100 362.686,269.450 363.237,270.000 363.400 C 270.550 363.562,271.730 364.023,272.623 364.422 C 273.515 364.822,275.135 365.367,276.223 365.632 C 277.310 365.898,278.380 366.252,278.600 366.420 C 278.820 366.587,280.620 367.027,282.600 367.397 C 284.580 367.767,286.560 368.224,287.000 368.413 C 290.893 370.081,313.361 370.347,320.503 368.809 C 321.436 368.608,323.985 368.071,326.167 367.615 C 328.350 367.159,330.330 366.633,330.567 366.445 C 330.805 366.258,331.990 365.878,333.200 365.601 C 334.410 365.323,335.850 364.860,336.400 364.572 C 336.950 364.283,338.345 363.752,339.500 363.391 C 340.655 363.031,341.600 362.570,341.600 362.368 C 341.600 362.166,341.915 361.997,342.300 361.992 C 342.917 361.986,346.935 360.070,351.253 357.724 C 360.291 352.813,371.551 343.049,378.087 334.455 C 379.029 333.216,380.113 331.856,380.495 331.431 C 380.878 331.006,381.295 330.331,381.422 329.929 C 381.550 329.528,381.781 329.200,381.936 329.200 C 382.091 329.200,382.572 328.525,383.005 327.700 C 383.438 326.875,383.895 326.110,384.019 326.000 C 384.400 325.665,389.200 316.885,389.200 316.525 C 389.200 316.340,389.535 315.561,389.944 314.794 C 390.353 314.027,390.825 312.950,390.992 312.400 C 391.159 311.850,391.623 310.670,392.022 309.777 C 392.422 308.885,392.967 307.265,393.232 306.177 C 393.498 305.090,393.856 304.017,394.029 303.794 C 394.201 303.571,394.667 301.771,395.065 299.794 C 395.463 297.817,395.900 296.110,396.037 296.000 C 396.487 295.636,397.239 289.477,397.452 284.400 C 397.567 281.650,397.863 278.986,398.109 278.481 C 398.441 277.797,398.433 277.104,398.078 275.775 C 397.815 274.792,397.600 272.686,397.600 271.094 C 397.599 267.716,396.472 257.508,396.066 257.206 C 395.914 257.093,395.463 255.383,395.065 253.406 C 394.667 251.429,394.203 249.629,394.033 249.406 C 393.864 249.183,393.408 247.830,393.020 246.400 C 392.631 244.970,392.177 243.620,392.010 243.400 C 391.843 243.180,391.398 242.055,391.021 240.900 C 390.644 239.745,390.209 238.800,390.055 238.800 C 389.901 238.800,389.533 237.980,389.237 236.978 C 388.941 235.976,388.493 234.941,388.242 234.678 C 387.991 234.415,387.447 233.435,387.032 232.500 C 386.618 231.565,386.162 230.800,386.020 230.800 C 385.877 230.800,385.547 230.210,385.287 229.489 C 385.026 228.768,384.539 227.823,384.204 227.389 C 383.869 226.955,382.831 225.435,381.898 224.012 C 380.964 222.588,379.930 221.116,379.600 220.740 C 379.270 220.364,378.550 219.473,378.000 218.761 C 377.450 218.049,376.444 216.821,375.764 216.033 C 375.085 215.245,374.095 214.088,373.564 213.463 C 369.668 208.869,357.622 198.800,356.022 198.800 C 355.776 198.800,355.480 198.553,355.364 198.250 C 355.248 197.948,354.398 197.368,353.476 196.961 C 352.554 196.555,351.676 196.044,351.524 195.826 C 351.206 195.370,349.867 196.955,348.637 199.243 C 348.177 200.099,346.630 202.825,345.200 205.300 C 343.770 207.775,342.528 209.980,342.440 210.200 C 342.352 210.420,342.158 210.690,342.009 210.800 C 341.859 210.910,341.460 211.540,341.122 212.200 C 339.730 214.916,336.204 221.032,335.780 221.466 C 335.530 221.722,335.079 222.532,334.777 223.266 C 334.476 224.000,334.082 224.780,333.901 225.000 C 333.262 225.780,330.845 230.028,330.598 230.808 C 330.459 231.244,330.206 231.600,330.034 231.600 C 329.862 231.600,329.382 232.365,328.968 233.300 C 328.553 234.235,327.997 235.227,327.731 235.504 C 327.466 235.782,327.022 236.637,326.744 237.404 C 326.466 238.172,326.098 238.800,325.925 238.800 C 325.752 238.800,325.343 239.441,325.016 240.223 C 324.689 241.006,324.056 242.111,323.611 242.677 C 322.560 244.013,322.582 245.055,323.675 245.640 C 324.156 245.898,324.741 246.259,324.975 246.444 C 328.444 249.182,330.465 250.983,331.699 252.435 C 332.524 253.406,333.459 254.505,333.778 254.879 C 334.097 255.252,334.642 256.107,334.989 256.779 C 335.336 257.450,335.760 258.000,335.931 258.000 C 336.102 258.000,336.566 258.900,336.961 260.000 C 337.357 261.100,337.800 262.000,337.945 262.000 C 338.091 262.000,338.550 263.215,338.966 264.700 C 339.382 266.185,339.862 267.583,340.033 267.807 C 341.279 269.439,341.273 283.202,340.025 285.503 C 339.817 285.886,339.333 287.280,338.948 288.600 C 338.564 289.920,338.120 291.091,337.961 291.201 C 337.803 291.312,337.354 292.212,336.965 293.201 C 336.575 294.191,336.019 295.144,335.728 295.320 C 335.438 295.496,335.198 295.856,335.196 296.120 C 335.189 297.011,328.471 304.800,327.710 304.800 C 327.585 304.800,326.744 305.404,325.841 306.143 C 324.939 306.881,323.795 307.613,323.300 307.770 C 322.805 307.926,322.400 308.186,322.400 308.348 C 322.400 308.510,321.500 308.966,320.400 309.361 C 319.300 309.757,318.400 310.206,318.400 310.360 C 318.400 310.514,317.005 310.977,315.300 311.389 C 313.595 311.802,311.947 312.333,311.639 312.570 C 310.871 313.158,298.073 313.156,297.685 312.567 C 297.528 312.329,296.368 311.930,295.107 311.682 C 293.845 311.433,291.815 310.773,290.595 310.215 C 289.375 309.657,288.301 309.200,288.208 309.200 C 288.116 309.200,287.240 308.660,286.262 308.000 C 285.284 307.340,284.375 306.800,284.242 306.800 C 282.822 306.800,273.373 296.147,272.622 293.700 C 272.470 293.205,272.207 292.800,272.036 292.800 C 271.866 292.800,271.392 291.675,270.983 290.300 C 270.573 288.925,270.102 287.704,269.935 287.586 C 268.170 286.342,268.194 266.904,269.962 265.600 C 270.112 265.490,270.486 264.590,270.794 263.600 C 271.301 261.968,273.433 257.691,273.983 257.200 C 274.107 257.090,274.682 256.280,275.261 255.400 C 276.268 253.870,281.830 248.000,282.272 248.000 C 282.389 248.000,283.141 247.490,283.942 246.866 C 284.744 246.243,285.715 245.619,286.100 245.479 C 286.919 245.182,287.011 244.282,286.300 243.522 C 286.025 243.228,285.442 242.271,285.004 241.394 C 284.566 240.517,284.103 239.710,283.975 239.600 C 283.847 239.490,282.958 237.960,282.000 236.200 C 281.042 234.440,280.145 232.910,280.008 232.800 C 279.871 232.690,279.426 231.880,279.020 231.000 C 278.614 230.120,278.160 229.310,278.012 229.200 C 277.864 229.090,276.958 227.560,276.000 225.800 C 275.042 224.040,274.116 222.504,273.944 222.386 C 273.772 222.268,273.334 221.458,272.971 220.586 C 272.607 219.714,272.174 218.910,272.009 218.800 C 271.843 218.690,271.278 217.811,270.754 216.846 C 268.833 213.313,267.959 211.766,267.003 210.200 C 266.465 209.320,265.651 207.835,265.194 206.900 C 264.737 205.965,264.236 205.199,264.081 205.199 C 263.927 205.198,263.467 204.388,263.060 203.399 C 262.654 202.409,262.173 201.600,261.991 201.600 C 261.810 201.600,261.455 200.971,261.201 200.203 C 260.947 199.435,260.518 198.670,260.247 198.503 C 259.975 198.336,259.517 197.615,259.228 196.900 C 258.618 195.389,258.680 195.396,256.600 196.608 " stroke="none" fill="#0404fc" fill-rule="evenodd"></path><path id="path1" d="M34.000 391.062 C 28.592 391.273,20.800 392.092,20.800 392.450 C 20.800 392.642,20.478 392.800,20.084 392.800 C 19.027 392.800,14.660 393.986,14.413 394.340 C 14.296 394.508,13.573 394.899,12.807 395.210 C 10.933 395.969,7.509 399.571,6.859 401.467 C 6.570 402.310,6.093 403.540,5.799 404.200 C 5.506 404.860,5.055 406.930,4.798 408.800 C 4.541 410.670,4.163 412.519,3.957 412.909 C 2.640 415.402,2.675 448.835,3.997 450.157 C 4.218 450.378,4.400 451.007,4.400 451.554 C 4.400 452.771,5.607 457.723,5.971 458.000 C 6.115 458.110,6.486 458.984,6.795 459.943 C 7.104 460.901,7.591 461.775,7.878 461.885 C 8.165 461.995,8.400 462.297,8.400 462.555 C 8.400 463.962,14.632 467.763,17.775 468.273 C 18.559 468.401,19.200 468.641,19.200 468.807 C 19.200 470.597,52.108 470.596,55.552 468.805 C 55.908 468.620,57.415 468.163,58.900 467.790 C 60.385 467.416,61.600 466.987,61.600 466.836 C 61.600 466.685,62.185 466.341,62.900 466.073 C 65.434 465.122,68.237 461.550,69.234 458.000 C 69.512 457.010,69.889 456.001,70.072 455.757 C 70.529 455.146,71.584 447.502,71.593 444.733 C 71.597 443.487,71.790 442.403,72.022 442.326 C 72.608 442.131,72.608 418.048,72.022 417.462 C 71.790 417.230,71.599 416.311,71.598 415.420 C 71.594 413.243,70.486 405.996,70.071 405.442 C 69.889 405.199,69.518 404.225,69.247 403.278 C 67.844 398.372,63.327 394.388,57.794 393.175 C 56.477 392.886,55.309 392.519,55.197 392.359 C 54.701 391.646,40.810 390.797,34.000 391.062 M282.610 391.675 C 280.636 391.877,278.926 392.174,278.810 392.335 C 278.695 392.495,277.435 392.861,276.010 393.148 C 273.209 393.711,268.400 395.771,268.400 396.408 C 268.400 396.624,268.160 396.800,267.866 396.800 C 265.332 396.800,261.516 405.746,260.756 413.468 C 259.946 421.692,260.823 449.428,261.980 452.200 C 262.163 452.640,262.500 454.112,262.727 455.471 C 263.484 459.992,265.981 464.242,268.814 465.831 C 269.568 466.254,270.399 466.797,270.660 467.038 C 270.920 467.279,272.274 467.715,273.667 468.006 C 275.060 468.297,276.295 468.676,276.412 468.849 C 277.623 470.641,312.484 470.565,313.133 468.769 C 313.207 468.566,313.605 468.400,314.019 468.400 C 315.014 468.400,318.353 467.256,319.082 466.666 C 322.946 463.538,324.488 460.897,325.198 456.197 C 325.463 454.439,325.842 452.687,326.040 452.305 C 326.238 451.923,326.400 449.358,326.400 446.605 L 326.400 441.600 318.643 441.600 L 310.886 441.600 310.712 446.100 C 310.415 453.770,308.615 455.640,300.752 456.448 C 286.302 457.933,278.210 455.709,277.184 449.971 C 275.428 440.146,275.422 418.500,277.173 410.716 C 277.903 407.470,281.308 405.200,285.449 405.200 C 286.166 405.200,286.864 405.020,287.000 404.800 C 287.305 404.306,301.061 404.251,301.365 404.743 C 301.481 404.931,302.508 405.196,303.646 405.331 C 308.139 405.863,309.462 408.054,310.269 416.300 L 310.474 418.400 318.098 418.400 L 325.722 418.400 325.452 413.025 C 325.181 407.633,324.566 403.174,324.042 402.800 C 323.887 402.690,323.546 401.862,323.282 400.960 C 322.661 398.830,320.349 395.822,318.811 395.141 C 318.145 394.846,317.600 394.486,317.600 394.340 C 317.600 394.005,314.101 392.800,313.129 392.800 C 312.728 392.800,312.400 392.644,312.400 392.452 C 312.400 391.335,291.306 390.785,282.610 391.675 M328.253 392.700 C 328.401 393.305,328.854 394.925,329.261 396.300 C 329.667 397.675,330.358 400.015,330.795 401.500 C 331.232 402.985,331.766 404.560,331.981 405.000 C 332.196 405.440,332.665 406.970,333.022 408.400 C 333.379 409.830,333.810 411.180,333.979 411.400 C 334.148 411.620,334.611 413.060,335.009 414.600 C 335.407 416.140,335.856 417.580,336.008 417.800 C 336.160 418.020,336.504 419.100,336.772 420.200 C 337.040 421.300,337.502 422.740,337.799 423.400 C 338.095 424.060,338.628 425.680,338.984 427.000 C 339.340 428.320,339.798 429.760,340.002 430.200 C 340.206 430.640,340.665 432.170,341.023 433.599 C 341.381 435.028,341.801 436.288,341.958 436.399 C 342.115 436.510,342.624 437.950,343.090 439.600 C 344.695 445.292,345.606 448.204,346.155 449.400 C 346.457 450.060,346.930 451.590,347.205 452.800 C 347.480 454.010,347.836 455.180,347.995 455.400 C 348.155 455.620,348.611 457.060,349.009 458.600 C 349.407 460.140,349.860 461.580,350.017 461.800 C 350.174 462.020,350.634 463.505,351.040 465.100 C 351.445 466.695,351.917 468.000,352.089 468.000 C 352.260 468.000,352.400 468.333,352.400 468.739 C 352.400 469.647,360.533 470.088,370.326 469.712 L 376.253 469.484 376.980 466.642 C 377.380 465.079,377.830 463.710,377.978 463.600 C 378.127 463.490,378.579 462.140,378.982 460.600 C 379.384 459.060,379.842 457.620,379.999 457.400 C 380.155 457.180,380.592 455.743,380.969 454.208 C 381.347 452.672,381.807 451.232,381.992 451.008 C 382.177 450.783,382.631 449.430,383.000 448.000 C 383.369 446.570,383.814 445.220,383.987 445.000 C 384.161 444.780,384.628 443.205,385.025 441.500 C 385.422 439.795,385.874 438.400,386.030 438.400 C 386.186 438.400,386.631 437.095,387.018 435.500 C 387.405 433.905,387.846 432.510,387.997 432.400 C 388.148 432.290,388.601 430.940,389.002 429.400 C 389.404 427.860,389.857 426.420,390.009 426.200 C 390.161 425.980,390.616 424.540,391.018 423.000 C 391.421 421.460,391.868 420.110,392.012 420.000 C 392.155 419.890,392.605 418.540,393.012 417.000 C 393.418 415.460,393.863 414.110,394.000 414.000 C 394.137 413.890,394.579 412.540,394.982 411.000 C 395.384 409.460,395.839 408.020,395.991 407.800 C 396.143 407.580,396.596 406.140,396.998 404.600 C 397.399 403.060,397.844 401.710,397.986 401.600 C 398.475 401.221,400.000 394.900,400.000 393.252 L 400.000 391.600 392.200 391.600 C 384.746 391.600,384.400 391.634,384.400 392.376 C 384.400 392.803,384.241 393.251,384.046 393.372 C 383.851 393.492,383.371 394.808,382.980 396.295 C 382.588 397.783,382.137 399.180,381.977 399.400 C 381.817 399.620,381.369 400.970,380.980 402.400 C 380.592 403.830,380.153 405.180,380.004 405.400 C 379.854 405.620,379.407 407.060,379.009 408.600 C 378.611 410.140,378.153 411.580,377.991 411.800 C 377.829 412.020,377.398 413.280,377.033 414.600 C 376.668 415.920,376.194 417.360,375.979 417.800 C 375.765 418.240,375.232 419.815,374.795 421.300 C 372.744 428.265,372.359 429.480,371.845 430.600 C 371.543 431.260,371.076 432.746,370.807 433.901 C 370.539 435.057,370.169 436.095,369.985 436.209 C 369.802 436.323,369.344 437.807,368.969 439.508 C 368.593 441.209,368.165 442.690,368.016 442.800 C 367.868 442.910,367.418 444.440,367.017 446.200 C 366.616 447.960,366.156 449.580,365.996 449.800 C 365.836 450.020,365.481 451.153,365.208 452.319 C 364.554 455.106,363.997 454.802,363.108 451.173 C 362.707 449.538,362.214 447.840,362.012 447.400 C 361.809 446.960,361.288 445.250,360.853 443.600 C 359.305 437.723,358.239 434.197,357.950 433.994 C 357.788 433.880,357.347 432.530,356.970 430.994 C 356.592 429.457,356.146 428.020,355.977 427.800 C 355.809 427.580,355.369 426.230,355.000 424.800 C 354.631 423.370,354.181 422.020,354.000 421.800 C 353.819 421.580,353.369 420.230,353.000 418.800 C 352.631 417.370,352.181 416.020,352.000 415.800 C 351.819 415.580,351.369 414.230,351.000 412.800 C 350.631 411.370,350.193 410.020,350.027 409.800 C 349.861 409.580,349.408 408.230,349.020 406.800 C 348.631 405.370,348.179 404.020,348.014 403.800 C 347.849 403.580,347.384 402.140,346.982 400.600 C 346.579 399.060,346.127 397.710,345.978 397.600 C 345.830 397.490,345.374 396.095,344.965 394.500 L 344.223 391.600 336.104 391.600 L 327.985 391.600 328.253 392.700 M45.400 404.800 C 45.536 405.020,46.147 405.200,46.757 405.200 C 51.676 405.200,54.577 407.058,55.234 410.628 C 55.474 411.933,55.880 413.432,56.135 413.961 C 56.786 415.305,56.791 445.480,56.141 446.840 C 55.889 447.368,55.462 448.876,55.192 450.191 C 54.306 454.513,52.099 455.729,43.800 456.467 C 34.954 457.254,34.318 457.278,33.876 456.836 C 33.636 456.596,32.592 456.400,31.555 456.400 C 26.089 456.400,21.207 454.476,20.607 452.086 C 20.458 451.493,20.181 450.912,19.991 450.794 C 18.294 449.746,18.307 411.446,20.005 410.397 C 20.187 410.284,20.458 409.707,20.607 409.114 C 21.047 407.360,23.160 406.070,26.468 405.532 C 28.080 405.271,29.571 404.909,29.780 404.728 C 30.338 404.247,45.100 404.315,45.400 404.800 M109.000 414.400 C 108.864 414.620,108.215 414.800,107.559 414.800 C 105.959 414.800,101.200 416.014,101.200 416.422 C 101.200 416.600,100.814 416.869,100.341 417.019 C 99.869 417.169,98.564 418.187,97.441 419.282 L 95.400 421.272 95.283 418.236 L 95.166 415.200 88.383 415.200 L 81.600 415.200 81.600 454.000 L 81.600 492.800 88.600 492.800 L 95.600 492.800 95.600 478.200 C 95.600 463.897,95.733 462.407,96.831 464.458 C 98.140 466.904,102.603 469.270,107.325 470.021 C 111.858 470.742,122.373 469.951,123.200 468.826 C 123.310 468.677,124.030 468.312,124.800 468.016 C 125.570 467.719,126.380 467.266,126.600 467.009 C 126.820 466.752,127.316 466.367,127.702 466.154 C 128.804 465.545,131.117 461.676,131.407 459.957 C 131.552 459.101,131.812 458.400,131.986 458.400 C 133.863 458.400,133.903 428.228,132.029 425.807 C 131.855 425.583,131.431 424.551,131.086 423.514 C 130.741 422.477,130.220 421.329,129.929 420.962 C 128.693 419.404,126.261 417.200,125.779 417.200 C 125.492 417.200,124.988 416.931,124.660 416.603 C 123.989 415.932,119.676 414.815,117.724 414.806 C 117.022 414.803,116.336 414.620,116.200 414.400 C 116.064 414.180,114.444 414.000,112.600 414.000 C 110.756 414.000,109.136 414.180,109.000 414.400 M161.400 414.400 C 161.264 414.620,160.436 414.800,159.560 414.800 C 157.658 414.800,151.886 415.945,151.601 416.379 C 151.490 416.547,150.685 416.917,149.811 417.203 C 148.251 417.711,144.400 421.140,144.400 422.020 C 144.400 422.260,144.158 422.699,143.862 422.995 C 143.566 423.292,143.085 424.674,142.794 426.067 C 142.503 427.460,142.123 428.696,141.949 428.814 C 140.592 429.729,140.627 453.943,141.987 455.800 C 142.148 456.020,142.515 457.340,142.802 458.733 C 143.089 460.126,143.566 461.508,143.862 461.805 C 144.158 462.101,144.400 462.551,144.400 462.806 C 144.400 463.946,148.750 467.513,150.773 468.032 C 151.888 468.317,152.800 468.675,152.800 468.827 C 152.800 470.769,176.895 470.563,180.682 468.588 C 181.297 468.267,181.986 468.004,182.213 468.002 C 183.793 467.993,188.381 463.998,189.233 461.889 C 189.520 461.180,189.904 460.497,190.087 460.371 C 190.522 460.070,191.195 455.911,191.198 453.500 L 191.200 451.600 184.418 451.600 L 177.636 451.600 177.402 453.100 C 176.542 458.607,175.255 459.400,167.180 459.400 C 160.140 459.400,156.400 457.719,156.400 454.554 C 156.400 454.286,156.203 454.001,155.962 453.921 C 155.704 453.835,155.415 452.010,155.259 449.487 L 154.993 445.200 173.096 445.200 L 191.200 445.200 191.199 441.300 C 191.197 436.747,190.473 428.385,190.030 427.802 C 189.862 427.581,189.491 426.500,189.207 425.400 C 188.158 421.343,184.239 416.800,181.788 416.800 C 181.501 416.800,181.207 416.635,181.133 416.433 C 180.955 415.943,175.292 414.800,173.040 414.800 C 172.054 414.800,171.136 414.620,171.000 414.400 C 170.859 414.171,168.804 414.000,166.200 414.000 C 163.596 414.000,161.541 414.171,161.400 414.400 M228.400 414.400 C 228.400 414.620,227.737 414.800,226.926 414.800 C 225.229 414.800,220.800 415.960,220.800 416.404 C 220.800 416.569,220.252 416.930,219.582 417.207 C 218.912 417.485,217.562 418.629,216.582 419.749 L 214.800 421.786 214.800 418.493 L 214.800 415.200 208.200 415.200 L 201.600 415.200 201.600 442.400 L 201.600 469.600 208.381 469.600 L 215.163 469.600 215.281 450.985 C 215.358 438.979,215.544 432.269,215.806 432.085 C 216.029 431.928,216.569 431.047,217.006 430.127 C 217.443 429.208,218.340 428.138,219.000 427.750 C 219.660 427.362,220.421 426.827,220.691 426.560 C 222.848 424.430,232.985 425.023,235.381 427.419 C 237.069 429.107,237.115 429.614,237.419 449.936 L 237.714 469.600 244.457 469.600 L 251.200 469.600 251.197 449.900 C 251.194 431.092,250.907 425.195,249.977 424.867 C 249.770 424.793,249.600 424.469,249.600 424.147 C 249.600 422.618,245.264 417.200,244.041 417.200 C 243.830 417.200,243.389 416.931,243.060 416.603 C 242.323 415.866,238.351 414.800,236.340 414.800 C 235.519 414.800,234.736 414.620,234.600 414.400 C 234.464 414.180,233.013 414.000,231.376 414.000 C 229.659 414.000,228.400 414.169,228.400 414.400 M112.606 425.721 C 115.009 426.225,117.600 427.943,117.600 429.033 C 117.600 429.308,117.770 429.593,117.979 429.667 C 120.144 430.429,119.628 452.562,117.365 455.981 C 115.411 458.934,106.520 460.736,102.762 458.940 C 102.233 458.688,101.228 458.266,100.529 458.004 C 98.231 457.142,96.436 453.446,96.410 449.524 C 96.404 448.712,96.220 447.936,96.000 447.800 C 95.507 447.495,95.453 436.400,95.945 436.400 C 96.134 436.400,96.408 435.248,96.552 433.839 C 97.101 428.483,99.105 426.035,103.400 425.476 C 106.054 425.131,110.333 425.244,112.606 425.721 M173.715 425.965 C 174.329 426.200,175.260 426.855,175.784 427.421 C 176.726 428.437,176.919 429.184,177.408 433.700 L 177.658 436.000 166.267 436.000 L 154.876 436.000 155.038 434.400 C 155.127 433.520,155.272 432.089,155.359 431.221 C 155.449 430.332,156.017 428.944,156.659 428.047 C 157.764 426.503,158.097 426.334,161.800 425.431 C 163.173 425.096,172.543 425.516,173.715 425.965 " stroke="none" fill="#040404" fill-rule="evenodd"></path><path id="path2" d="M87.100 183.468 C 85.395 183.559,84.000 183.806,84.000 184.017 C 84.000 184.228,83.448 184.400,82.773 184.400 C 80.959 184.400,72.632 185.658,72.400 185.967 C 72.290 186.113,70.760 186.562,69.000 186.965 C 67.240 187.368,65.620 187.834,65.400 188.000 C 65.180 188.167,63.940 188.608,62.644 188.979 C 61.348 189.351,59.908 189.884,59.444 190.164 C 58.980 190.444,57.835 190.911,56.900 191.201 C 55.965 191.491,55.200 191.861,55.200 192.024 C 55.200 192.187,54.300 192.643,53.200 193.039 C 52.100 193.434,51.200 193.878,51.200 194.025 C 51.200 194.171,50.390 194.601,49.400 194.979 C 48.410 195.357,47.600 195.809,47.600 195.985 C 47.600 196.160,47.045 196.533,46.366 196.814 C 45.687 197.095,44.919 197.522,44.659 197.763 C 44.398 198.003,43.559 198.546,42.793 198.969 C 41.095 199.906,40.454 200.383,35.473 204.421 C 30.228 208.674,25.925 213.033,21.800 218.272 C 17.540 223.682,18.031 223.019,16.394 225.584 C 14.552 228.470,14.201 229.072,13.117 231.200 C 12.613 232.190,12.081 233.091,11.936 233.201 C 11.791 233.312,11.354 234.212,10.964 235.201 C 10.574 236.191,10.129 237.090,9.975 237.200 C 9.820 237.310,9.391 238.296,9.021 239.390 C 8.651 240.485,8.204 241.565,8.027 241.790 C 7.850 242.016,7.396 243.190,7.018 244.400 C 6.639 245.610,6.093 247.140,5.805 247.800 C 5.516 248.460,5.062 250.080,4.796 251.400 C 4.531 252.720,4.161 253.988,3.976 254.218 C 3.790 254.448,3.336 256.878,2.968 259.618 C 2.599 262.358,2.095 265.032,1.849 265.561 C 1.179 266.995,1.227 287.676,1.900 287.900 C 2.175 287.992,2.400 288.593,2.400 289.236 C 2.400 291.065,3.561 298.338,3.976 299.108 C 4.181 299.489,4.658 301.195,5.034 302.900 C 5.411 304.605,5.853 306.000,6.015 306.000 C 6.178 306.000,6.433 306.651,6.582 307.447 C 6.732 308.243,7.269 309.818,7.777 310.947 C 8.285 312.076,8.917 313.675,9.181 314.500 C 9.446 315.325,9.793 316.000,9.952 316.000 C 10.111 316.000,10.566 316.900,10.961 318.000 C 11.357 319.100,11.806 320.000,11.960 320.000 C 12.114 320.000,12.471 320.641,12.754 321.423 C 13.037 322.206,13.947 323.871,14.776 325.123 C 15.606 326.376,16.585 327.985,16.952 328.700 C 17.320 329.415,17.767 330.000,17.946 330.000 C 18.125 330.000,18.459 330.412,18.689 330.916 C 19.879 333.529,29.924 344.449,34.860 348.499 C 35.597 349.103,36.616 349.944,37.124 350.367 C 37.633 350.790,39.073 351.826,40.324 352.668 C 41.576 353.511,42.690 354.306,42.800 354.436 C 43.147 354.846,48.202 357.800,50.650 359.025 C 51.943 359.671,53.060 360.335,53.133 360.500 C 53.207 360.665,53.439 360.800,53.650 360.800 C 53.861 360.800,55.151 361.318,56.517 361.951 C 57.883 362.584,59.450 363.235,60.000 363.398 C 60.550 363.562,61.730 364.023,62.623 364.422 C 63.515 364.822,65.135 365.367,66.223 365.632 C 67.310 365.898,68.380 366.252,68.600 366.420 C 68.820 366.587,70.620 367.027,72.600 367.397 C 74.580 367.767,76.560 368.225,77.000 368.415 C 81.115 370.190,109.787 370.184,112.200 368.409 C 112.420 368.247,114.040 367.891,115.800 367.619 C 117.560 367.347,119.540 366.884,120.200 366.589 C 120.860 366.295,122.570 365.743,124.000 365.364 C 125.430 364.985,126.780 364.547,127.000 364.390 C 127.220 364.234,128.345 363.798,129.500 363.421 C 130.655 363.044,131.600 362.570,131.600 362.368 C 131.600 362.166,131.936 362.000,132.348 362.000 C 132.994 362.000,138.631 359.296,141.578 357.572 C 144.391 355.927,151.702 350.818,153.800 349.030 C 155.120 347.906,156.634 346.629,157.164 346.193 C 159.802 344.023,164.599 338.884,168.172 334.400 C 168.960 333.410,169.754 332.415,169.935 332.190 C 170.116 331.964,170.606 331.244,171.023 330.590 C 171.440 329.935,171.889 329.310,172.021 329.200 C 172.153 329.090,172.607 328.370,173.030 327.600 C 173.454 326.830,173.901 326.110,174.024 326.000 C 174.897 325.219,181.200 312.766,181.200 311.821 C 181.200 311.675,181.549 310.791,181.975 309.855 C 182.401 308.920,182.970 307.265,183.240 306.177 C 183.509 305.090,183.849 304.110,183.995 304.000 C 184.140 303.890,184.572 302.270,184.954 300.400 C 185.336 298.530,185.808 296.640,186.004 296.200 C 186.635 294.782,187.214 289.947,187.463 284.000 C 187.597 280.810,187.885 277.975,188.103 277.700 C 189.427 276.025,189.004 276.000,159.410 276.000 L 131.318 276.000 130.872 280.385 C 130.627 282.797,130.250 285.092,130.036 285.485 C 129.822 285.878,129.333 287.280,128.948 288.600 C 128.564 289.920,128.120 291.091,127.961 291.201 C 127.803 291.312,127.350 292.212,126.955 293.201 C 126.560 294.191,126.095 295.180,125.920 295.400 C 125.745 295.620,124.886 296.790,124.011 298.000 C 122.363 300.279,118.143 304.800,117.664 304.800 C 117.514 304.800,116.928 305.230,116.360 305.756 C 115.793 306.282,114.715 307.027,113.965 307.412 C 113.214 307.797,112.510 308.226,112.400 308.367 C 112.290 308.507,111.390 308.972,110.400 309.400 C 109.410 309.828,108.510 310.284,108.400 310.414 C 108.290 310.543,106.940 310.968,105.400 311.357 C 103.860 311.747,102.167 312.275,101.639 312.533 C 100.373 313.148,88.076 313.162,87.679 312.548 C 87.526 312.310,86.680 311.992,85.800 311.841 C 84.027 311.538,82.638 311.077,80.104 309.953 C 79.172 309.539,78.326 309.200,78.224 309.200 C 78.123 309.200,77.240 308.660,76.262 308.000 C 75.284 307.340,74.375 306.800,74.242 306.800 C 72.865 306.800,64.484 297.481,62.931 294.223 C 62.557 293.441,62.134 292.800,61.989 292.800 C 61.845 292.800,61.392 291.675,60.983 290.300 C 60.573 288.925,60.102 287.704,59.935 287.586 C 58.170 286.342,58.194 266.904,59.962 265.600 C 60.112 265.490,60.486 264.590,60.794 263.600 C 61.301 261.968,63.433 257.691,63.983 257.200 C 64.107 257.090,64.682 256.280,65.261 255.400 C 66.268 253.870,71.830 248.000,72.272 248.000 C 72.389 248.000,73.167 247.460,74.000 246.800 C 74.833 246.140,75.690 245.600,75.904 245.600 C 76.117 245.600,76.755 245.236,77.320 244.791 C 77.885 244.347,79.125 243.712,80.074 243.381 C 81.023 243.051,82.393 242.502,83.118 242.162 C 83.844 241.823,85.959 241.337,87.818 241.084 C 89.678 240.830,91.200 240.483,91.200 240.311 C 91.200 239.849,97.912 239.934,98.200 240.400 C 98.336 240.620,99.022 240.803,99.724 240.806 C 101.380 240.814,105.812 241.849,107.600 242.646 C 108.370 242.989,109.950 243.736,111.112 244.307 L 113.224 245.343 113.912 244.393 C 114.739 243.251,115.684 241.588,116.798 239.317 C 117.251 238.391,117.805 237.520,118.028 237.383 C 118.251 237.245,118.716 236.427,119.060 235.566 C 119.405 234.705,119.835 234.000,120.016 234.000 C 120.198 234.000,120.459 233.644,120.598 233.208 C 120.836 232.456,123.217 228.253,123.888 227.400 C 124.061 227.180,124.562 226.237,125.001 225.305 C 125.440 224.372,125.908 223.607,126.039 223.605 C 126.171 223.602,126.619 222.835,127.034 221.900 C 127.450 220.965,127.933 220.020,128.108 219.800 C 128.768 218.971,131.161 214.753,131.402 213.992 C 131.541 213.556,131.781 213.200,131.937 213.200 C 132.093 213.200,132.576 212.392,133.010 211.404 C 133.445 210.416,133.908 209.606,134.039 209.604 C 134.171 209.602,134.618 208.835,135.034 207.900 C 135.450 206.965,136.107 205.851,136.495 205.425 C 136.883 204.998,137.200 204.441,137.200 204.186 C 137.200 203.931,137.552 203.316,137.983 202.820 C 138.413 202.324,138.967 201.306,139.214 200.559 C 139.460 199.812,139.801 199.200,139.970 199.200 C 140.325 199.200,141.808 196.070,141.563 195.840 C 141.097 195.404,133.524 191.664,131.800 191.019 C 130.700 190.608,129.440 190.050,129.000 189.780 C 128.560 189.509,127.255 189.054,126.100 188.769 C 124.945 188.483,124.000 188.126,124.000 187.975 C 124.000 187.825,122.425 187.376,120.500 186.978 C 118.575 186.579,116.910 186.125,116.800 185.969 C 116.555 185.621,109.031 184.400,107.132 184.400 C 106.378 184.400,105.588 184.228,105.377 184.017 C 104.956 183.596,92.006 183.207,87.100 183.468 " stroke="none" fill="#04fc04" fill-rule="evenodd"></path><path id="path3" d="M184.400 1.022 C 182.090 1.343,179.750 1.771,179.200 1.973 C 178.650 2.175,176.760 2.644,175.000 3.014 C 173.240 3.384,171.620 3.819,171.400 3.981 C 171.180 4.143,169.830 4.595,168.400 4.986 C 166.970 5.377,165.445 5.945,165.011 6.248 C 164.577 6.552,163.964 6.800,163.650 6.800 C 163.335 6.800,161.935 7.340,160.538 8.000 C 159.141 8.660,157.831 9.200,157.628 9.200 C 157.424 9.200,157.019 9.428,156.729 9.707 C 156.438 9.986,155.435 10.553,154.500 10.968 C 153.565 11.382,152.800 11.874,152.800 12.061 C 152.800 12.247,152.569 12.400,152.287 12.400 C 151.721 12.400,147.809 14.756,146.700 15.764 C 146.315 16.114,145.865 16.402,145.700 16.404 C 145.535 16.406,144.590 17.030,143.600 17.790 C 142.610 18.550,141.376 19.493,140.857 19.886 C 136.404 23.260,126.036 33.759,124.653 36.294 C 124.442 36.682,124.116 37.102,123.931 37.226 C 123.318 37.635,118.400 45.317,118.400 45.864 C 118.400 46.159,118.231 46.400,118.024 46.400 C 117.652 46.400,112.802 55.884,112.798 56.620 C 112.796 56.829,112.508 57.540,112.158 58.200 C 111.341 59.739,108.951 66.969,108.580 69.024 C 108.424 69.891,108.163 70.780,108.001 71.000 C 107.577 71.574,106.340 78.914,105.607 85.200 C 105.161 89.023,105.156 97.710,105.597 101.600 C 106.192 106.838,107.631 115.371,107.957 115.590 C 108.130 115.705,108.497 116.970,108.774 118.400 C 109.050 119.830,109.592 121.720,109.979 122.600 C 110.366 123.480,110.912 125.055,111.193 126.100 C 111.474 127.145,111.838 128.000,112.002 128.000 C 112.166 128.000,112.403 128.517,112.530 129.149 C 112.796 130.478,115.456 136.081,117.207 139.000 C 117.867 140.100,118.678 141.585,119.009 142.300 C 119.340 143.015,119.788 143.600,120.005 143.600 C 120.222 143.600,120.404 143.825,120.409 144.100 C 120.414 144.375,121.481 146.040,122.780 147.800 C 127.100 153.653,128.495 155.261,133.400 160.044 C 136.712 163.273,137.471 163.970,139.808 165.924 C 142.454 168.138,147.433 171.600,147.970 171.600 C 148.185 171.600,148.504 171.840,148.680 172.132 C 149.038 172.728,151.451 174.000,152.222 174.000 C 152.709 174.000,153.815 172.416,155.293 169.600 C 155.697 168.830,156.465 167.480,157.000 166.600 C 158.310 164.443,160.040 161.400,160.931 159.686 C 161.334 158.913,161.919 158.024,162.231 157.711 C 162.544 157.399,162.800 156.998,162.800 156.820 C 162.800 156.516,165.208 152.279,165.887 151.389 C 166.059 151.163,166.560 150.263,166.999 149.389 C 167.439 148.515,168.013 147.573,168.275 147.296 C 168.537 147.018,168.978 146.163,169.256 145.396 C 169.534 144.628,169.877 144.000,170.020 144.000 C 170.162 144.000,170.603 143.280,171.000 142.400 C 171.397 141.520,171.837 140.800,171.979 140.800 C 172.120 140.800,172.570 139.990,172.978 139.000 C 173.387 138.010,173.833 137.200,173.971 137.200 C 174.108 137.200,174.576 136.392,175.010 135.404 C 175.445 134.416,175.908 133.606,176.039 133.604 C 176.171 133.602,176.621 132.836,177.039 131.903 C 177.458 130.970,178.115 129.890,178.500 129.503 C 178.885 129.116,179.200 128.558,179.200 128.261 C 179.200 127.965,179.560 127.307,180.000 126.800 C 180.839 125.832,181.060 124.800,180.429 124.800 C 180.224 124.800,179.819 124.573,179.529 124.295 C 179.238 124.017,178.472 123.451,177.826 123.037 C 175.231 121.374,170.616 116.755,168.949 114.152 C 168.543 113.518,167.994 112.773,167.730 112.496 C 167.465 112.218,167.022 111.363,166.744 110.596 C 166.466 109.828,166.100 109.200,165.931 109.200 C 165.761 109.200,165.323 108.165,164.958 106.900 C 164.593 105.635,164.144 104.503,163.961 104.385 C 162.123 103.198,162.153 84.624,163.998 82.200 C 164.165 81.980,164.428 81.350,164.582 80.800 C 165.025 79.220,167.728 73.924,168.500 73.125 C 168.885 72.726,169.200 72.235,169.200 72.033 C 169.200 71.623,175.372 65.389,176.851 64.305 C 180.163 61.878,184.632 59.589,187.600 58.800 C 188.590 58.537,189.586 58.169,189.814 57.983 C 191.259 56.802,205.826 56.786,207.396 57.965 C 207.618 58.131,209.015 58.588,210.500 58.978 C 211.985 59.369,213.200 59.813,213.200 59.964 C 213.200 60.115,213.848 60.474,214.639 60.760 C 221.820 63.356,231.293 74.285,233.228 82.205 C 233.496 83.302,233.857 84.383,234.030 84.607 C 235.254 86.194,235.259 100.545,234.036 102.200 C 233.873 102.420,233.519 103.410,233.248 104.400 C 232.417 107.443,229.607 112.869,227.600 115.307 C 225.791 117.504,220.629 122.468,219.597 123.001 C 218.939 123.342,218.400 123.775,218.400 123.964 C 218.400 124.152,218.018 124.407,217.550 124.529 C 216.602 124.777,216.744 126.424,217.816 127.615 C 218.120 127.953,218.656 128.853,219.006 129.615 C 219.356 130.377,220.253 131.990,221.000 133.200 C 221.747 134.410,222.647 135.940,223.000 136.600 C 223.354 137.260,224.128 138.625,224.722 139.633 C 225.315 140.642,226.229 142.262,226.754 143.233 C 227.278 144.205,227.843 145.090,228.009 145.200 C 228.174 145.310,228.606 146.030,228.968 146.800 C 229.882 148.747,231.614 151.756,231.959 151.999 C 232.116 152.109,232.488 152.800,232.785 153.534 C 233.082 154.268,233.522 155.081,233.763 155.340 C 234.003 155.600,234.558 156.529,234.996 157.406 C 235.434 158.283,235.897 159.090,236.025 159.200 C 236.153 159.310,237.042 160.840,238.000 162.600 C 238.958 164.360,239.845 165.890,239.971 166.000 C 240.097 166.110,240.560 166.856,241.000 167.659 C 243.927 172.995,244.573 174.000,245.076 174.000 C 245.661 174.000,247.798 172.988,248.562 172.349 C 248.803 172.148,250.170 171.222,251.600 170.292 C 253.030 169.361,254.406 168.420,254.658 168.200 C 254.910 167.980,255.704 167.350,256.422 166.800 C 259.368 164.544,269.200 155.186,269.200 154.638 C 269.200 154.464,269.695 153.829,270.300 153.228 C 270.905 152.627,271.760 151.643,272.200 151.042 C 272.640 150.441,273.290 149.625,273.645 149.230 C 273.999 148.834,274.629 147.901,275.045 147.155 C 275.460 146.410,276.025 145.656,276.300 145.480 C 276.575 145.304,276.800 144.933,276.800 144.656 C 276.800 144.378,277.115 143.802,277.500 143.375 C 278.219 142.579,279.287 140.758,280.888 137.600 C 281.389 136.610,282.025 135.562,282.300 135.271 C 282.575 134.981,282.800 134.580,282.800 134.381 C 282.800 134.183,283.340 132.841,284.000 131.400 C 284.660 129.959,285.200 128.555,285.200 128.279 C 285.200 128.003,285.448 127.423,285.752 126.989 C 286.055 126.555,286.623 125.030,287.014 123.600 C 287.405 122.170,287.864 120.817,288.033 120.594 C 288.203 120.371,288.667 118.571,289.065 116.594 C 289.463 114.617,289.896 112.910,290.028 112.800 C 290.577 112.340,292.113 97.238,292.041 93.000 C 291.944 87.231,290.604 74.599,290.005 73.800 C 289.840 73.580,289.480 72.140,289.205 70.600 C 288.929 69.060,288.470 67.260,288.183 66.600 C 287.897 65.940,287.361 64.320,286.992 63.000 C 286.622 61.680,286.195 60.510,286.041 60.400 C 285.887 60.290,285.427 59.075,285.017 57.700 C 284.608 56.325,284.134 55.200,283.964 55.200 C 283.793 55.200,283.538 54.795,283.396 54.300 C 283.089 53.230,280.307 47.487,279.956 47.200 C 279.822 47.090,279.414 46.420,279.051 45.711 C 278.181 44.013,276.572 41.559,275.810 40.766 C 275.474 40.418,275.200 40.015,275.200 39.870 C 275.200 38.743,266.656 28.876,261.977 24.600 C 259.349 22.197,253.083 17.160,252.400 16.899 C 252.070 16.773,251.530 16.425,251.200 16.125 C 249.731 14.791,239.244 8.800,238.378 8.800 C 238.112 8.800,237.333 8.462,236.647 8.049 C 235.961 7.635,234.680 7.072,233.800 6.796 C 232.920 6.521,232.020 6.156,231.800 5.986 C 231.580 5.815,230.320 5.374,229.000 5.006 C 227.680 4.638,226.060 4.106,225.400 3.823 C 224.740 3.540,223.030 3.088,221.600 2.819 C 220.170 2.549,218.640 2.174,218.200 1.984 C 214.975 0.595,192.158 -0.054,184.400 1.022 " stroke="none" fill="#fc0404" fill-rule="evenodd"></path><path id="path4" d="" stroke="none" fill="#40c084" fill-rule="evenodd"></path></g></svg>